<?xml version="1.0" encoding="UTF-8"?>
<svg width="500px" height="250px" viewBox="0 0 500 250" version="1.1" xmlns="http://www.w3.org/2000/svg" xmlns:xlink="http://www.w3.org/1999/xlink">
    <!-- Generator: Sketch 55.1 (78136) - https://sketchapp.com -->
    <title>fronthull-middle-stepback</title>
    <desc>Created with Sketch.</desc>
    <g id="fronthull-middle-stepback" stroke="none" stroke-width="1" fill="none" fill-rule="evenodd">
        <g id="front-bottom-hull" stroke="#FFFFFF">
            <rect id="Rectangle" stroke-width="3" fill="#FFFFFF" x="366.5" y="1.5" width="7" height="148"></rect>
            <rect id="Rectangle" stroke-width="3" fill="#FFFFFF" x="121.5" y="171.5" width="7" height="77"></rect>
            <rect id="Rectangle" stroke-width="3" fill="#FFFFFF" transform="translate(187.500000, 149.000000) rotate(-90.000000) translate(-187.500000, -149.000000) " x="184" y="-37" width="7" height="372"></rect>
            <path d="M132.731759,142.853387 L160.304195,181.153235 L160.304195,169.491406 L136.063541,135.927424 L132.731759,142.853387 Z" id="Rectangle" stroke-width="3" fill="#FFFFFF" transform="translate(146.398910, 159.405285) rotate(-90.000000) translate(-146.398910, -159.405285) "></path>
            <path d="M379.5,139.788257 C389.717268,139.788257 398,140.016652 398,139.788257 C398,129.570989 389.500971,125.301761 379.283703,125.301761 C369.066436,125.301761 361,129.570989 361,139.788257 C361,140.016652 369.282732,139.788257 379.5,139.788257 Z" id="Oval" stroke-width="6" transform="translate(379.500000, 132.595763) rotate(90.000000) translate(-379.500000, -132.595763) "></path>
            <rect id="Rectangle" stroke-width="5" x="372.5" y="20.5" width="11" height="69"></rect>
            <rect id="Rectangle" stroke-width="3" x="382.5" y="25.5" width="40" height="7"></rect>
            <rect id="Rectangle" stroke-width="3" x="20.5" y="81.5" width="301" height="39" rx="8"></rect>
            <rect id="Rectangle" stroke-width="3" x="20.5" y="19.5" width="301" height="39" rx="8"></rect>
            <rect id="Rectangle" stroke-width="3" x="382.5" y="77.5" width="40" height="7"></rect>
        </g>
    </g>
</svg>