<?xml version="1.0" encoding="UTF-8"?>
<svg width="500px" height="250px" viewBox="0 0 500 250" version="1.1" xmlns="http://www.w3.org/2000/svg" xmlns:xlink="http://www.w3.org/1999/xlink">
    <!-- Generator: Sketch 55.1 (78136) - https://sketchapp.com -->
    <title>innerhull1</title>
    <desc>Created with Sketch.</desc>
    <g id="innerhull1" stroke="none" stroke-width="1" fill="none" fill-rule="evenodd">
        <g transform="translate(0.000000, 18.000000)" stroke="#FFFFFF">
            <rect id="Rectangle" stroke-width="3" fill="#FFFFFF" x="1.5" y="127.5" width="497" height="7"></rect>
            <rect id="Rectangle" stroke-width="3" x="180.5" y="63.5" width="301" height="39" rx="8"></rect>
            <g id="Group-7" transform="translate(9.000000, 62.000000)">
                <rect id="Rectangle" stroke-width="3" x="1.5" y="1.5" width="154" height="39" rx="8"></rect>
                <rect id="Rectangle" x="11.5" y="24.5" width="108" height="8"></rect>
                <rect id="Rectangle" x="11.5" y="9.5" width="108" height="8"></rect>
                <ellipse id="Oval" cx="136.5" cy="28.5" rx="10.5" ry="4.5"></ellipse>
                <ellipse id="Oval" cx="136.5" cy="13.5" rx="10.5" ry="4.5"></ellipse>
            </g>
            <rect id="Rectangle" stroke-width="3" x="180.5" y="1.5" width="301" height="39" rx="8"></rect>
            <g id="Group-6" transform="translate(9.000000, 0.000000)">
                <rect id="Rectangle" x="11.5" y="24.5" width="108" height="8"></rect>
                <rect id="Rectangle" x="11.5" y="9.5" width="108" height="8"></rect>
                <ellipse id="Oval" cx="136.5" cy="28.5" rx="10.5" ry="4.5"></ellipse>
                <ellipse id="Oval" cx="136.5" cy="13.5" rx="10.5" ry="4.5"></ellipse>
                <rect id="Rectangle" stroke-width="3" x="1.5" y="1.5" width="154" height="39" rx="8"></rect>
            </g>
        </g>
    </g>
</svg>