<?xml version="1.0" encoding="UTF-8"?>
<svg width="500px" height="250px" viewBox="0 0 500 250" version="1.1" xmlns="http://www.w3.org/2000/svg" xmlns:xlink="http://www.w3.org/1999/xlink">
    <!-- Generator: Sketch 55.1 (78136) - https://sketchapp.com -->
    <title>missile-launcher-top</title>
    <desc>Created with Sketch.</desc>
    <g id="missile-launcher-top" stroke="none" stroke-width="1" fill="none" fill-rule="evenodd">
        <g transform="translate(0.000000, 21.000000)" stroke="#FFFFFF">
            <rect id="Rectangle" stroke-width="3" fill="#FFFFFF" x="1.5" y="30.5" width="497" height="7"></rect>
            <path d="M0,130 L500,130" id="Line" stroke-width="4"></path>
            <rect id="Rectangle" stroke-width="3" x="72.5" y="17.5" width="109" height="15"></rect>
            <rect id="Rectangle" stroke-width="3" x="319.5" y="17.5" width="109" height="15"></rect>
            <rect id="Rectangle" stroke-width="3" x="331.5" y="10.5" width="86" height="7"></rect>
            <rect id="Rectangle" stroke-width="3" x="84.5" y="10.5" width="86" height="7"></rect>
            <path d="M250.5,33.4875701 C274.118649,33.4875701 293.265348,34.0155374 293.265348,33.4875701 C293.265348,9.86892065 273.618649,0 250,0 C226.381351,0 207.734652,9.86892065 207.734652,33.4875701 C207.734652,34.0155374 226.881351,33.4875701 250.5,33.4875701 Z" id="Oval" stroke-width="6"></path>
            <g id="Group-4" transform="translate(318.000000, 49.000000)" stroke-width="2">
                <rect id="Rectangle" x="1" y="1" width="110" height="69" rx="8"></rect>
                <ellipse id="Oval" cx="56.5" cy="36" rx="43.5" ry="24"></ellipse>
            </g>
            <g id="Group-4" transform="translate(71.000000, 49.000000)" stroke-width="2">
                <rect id="Rectangle" x="1" y="1" width="110" height="69" rx="8"></rect>
                <ellipse id="Oval" cx="56.5" cy="36" rx="43.5" ry="24"></ellipse>
            </g>
            <rect id="Rectangle" x="71.5" y="148.5" width="20" height="71"></rect>
            <rect id="Rectangle" x="162.5" y="148.5" width="20" height="71"></rect>
            <rect id="Rectangle" x="318.5" y="148.5" width="20" height="71"></rect>
            <rect id="Rectangle" x="409.5" y="148.5" width="20" height="71"></rect>
            <rect id="Rectangle" x="117.5" y="148.5" width="20" height="71"></rect>
            <rect id="Rectangle" x="364.5" y="148.5" width="20" height="71"></rect>
        </g>
    </g>
</svg>