<svg xmlns="http://www.w3.org/2000/svg" width="500" height="250" viewBox="0 0 500 250"><defs><style>.cls-1,.cls-2,.cls-3{fill:none;}.cls-1,.cls-2{stroke:#fff;stroke-miterlimit:10;}.cls-1{stroke-width:2px;}</style></defs><g id="Layer_2" data-name="Layer 2"><g id="Layer_1-2" data-name="Layer 1"><g id="bottom_singlegunturret"><polygon class="cls-1" points="289.2 123.5 208.6 123.5 165.5 94.5 199 10 289.2 9.5 346.5 28.5 289.2 123.5"/><line class="cls-2" x1="171.5" y1="79" x2="171.5" y2="29.5"/><line class="cls-2" x1="191.5" y1="29.5" x2="171.5" y2="29.5"/><polygon class="cls-1" points="479 77 334.45 77 329 87 479 87 479 77"/><polygon class="cls-1" points="342 65 325 65 305 97 323.47 96.08 342 65"/><rect class="cls-1" x="479" y="76" width="18" height="12"/><rect class="cls-1" x="212" y="1" width="74" height="8"/><line class="cls-2" x1="289.5" y1="66.5" x2="199.5" y2="66.5"/><line class="cls-2" x1="199.5" y1="10.5" x2="199.5" y2="66.5"/><line class="cls-2" x1="289.5" y1="9.5" x2="289.5" y2="66.5"/><line class="cls-2" x1="346.5" y1="28.5" x2="289.5" y2="66.5"/><line class="cls-2" x1="289.5" y1="123.5" x2="289.5" y2="66.5"/><line class="cls-2" x1="165.5" y1="94.5" x2="199.5" y2="66.5"/><line class="cls-2" x1="208.5" y1="123.5" x2="199.5" y2="66.5"/><rect class="cls-3" width="500" height="250"/></g></g></g></svg>