<svg xmlns="http://www.w3.org/2000/svg" width="500" height="250" viewBox="0 0 500 250"><defs><style>.cls-1,.cls-2,.cls-3,.cls-4,.cls-5,.cls-6,.cls-7,.cls-8,.cls-9{fill:none;}.cls-1,.cls-2,.cls-3,.cls-4,.cls-5,.cls-6,.cls-7,.cls-8{stroke:#fff;}.cls-1,.cls-4,.cls-8{stroke-miterlimit:10;}.cls-1{stroke-width:4px;}.cls-2,.cls-4,.cls-5{stroke-width:2px;}.cls-5,.cls-6,.cls-7{stroke-linecap:square;}.cls-7{stroke-width:0.5px;}</style></defs><g id="Layer_2" data-name="Layer 2"><g id="Layer_1-2" data-name="Layer 1"><g id="bottom_cargo"><line class="cls-1" x1="450" y1="200" x2="500" y2="200"/><line class="cls-2" x1="500" y1="48.5" y2="48.5"/><line class="cls-2" x1="500" y1="89" y2="89"/><line class="cls-3" x1="499.5" y1="48" x2="499.5" y2="89"/><line class="cls-3" x1="0.5" y1="48" x2="0.5" y2="89"/><line class="cls-1" y1="200" x2="50" y2="200"/><line class="cls-1" x1="450" y1="90" x2="450" y2="200"/><line class="cls-1" x1="50" y1="89" x2="50" y2="200"/><rect class="cls-4" x="51" y="193" width="398" height="18"/><line class="cls-4" x1="477" y1="200" x2="449" y2="211"/><line class="cls-4" x1="51" y1="211" x2="7" y2="200"/><line class="cls-4" x1="50" y1="193" x2="105" y2="211"/><line class="cls-4" x1="50" y1="211" x2="105" y2="193"/><line class="cls-4" x1="105" y1="193" x2="175" y2="211"/><line class="cls-4" x1="105" y1="211" x2="175" y2="193"/><line class="cls-4" x1="176" y1="193" x2="246" y2="211"/><line class="cls-4" x1="176" y1="211" x2="246" y2="193"/><line class="cls-4" x1="246" y1="193" x2="316" y2="211"/><line class="cls-4" x1="246" y1="211" x2="316" y2="193"/><line class="cls-4" x1="316" y1="193" x2="386" y2="211"/><line class="cls-4" x1="316" y1="211" x2="386" y2="193"/><line class="cls-4" x1="390" y1="193" x2="449" y2="211"/><line class="cls-4" x1="390" y1="211" x2="449" y2="193"/><line class="cls-1" x1="50" y1="90" x2="450" y2="90"/><rect class="cls-4" x="93" y="90" width="105" height="7"/><rect class="cls-4" x="290" y="90" width="105" height="7"/><rect class="cls-5" x="222.5" y="89.5" width="46" height="12"/><polyline class="cls-6" points="240 120.5 240 101 253 101 253 120.5"/><line class="cls-6" x1="338.33" y1="150.21" x2="251.49" y2="132.46"/><line class="cls-6" x1="253.69" y1="121.68" x2="340.54" y2="139.43"/><rect class="cls-6" x="243.47" y="128.7" width="5" height="24" transform="translate(386.68 -105.27) rotate(90)"/><polyline class="cls-6" points="241.82 153.27 241.82 143.27 249.82 143.27 249.82 153.27"/><circle class="cls-6" cx="246" cy="161" r="8.5"/><circle class="cls-6" cx="246.5" cy="125.5" r="8"/><circle class="cls-6" cx="345.5" cy="146.5" r="8"/><line class="cls-6" x1="324.5" y1="147.5" x2="252.5" y2="155.5"/><line class="cls-6" x1="253.5" y1="165.5" x2="343.5" y2="154.5"/><path id="Line-3" class="cls-7" d="M355.12,65.25h75"/><path id="Line-4" class="cls-7" d="M355.12,67.75h75"/><path id="Line-5" class="cls-7" d="M355.12,70.25h75"/><rect id="Rectangle" class="cls-3" x="354.5" y="61.5" width="76.25" height="12.5" rx="5"/><path id="Line-3-2" data-name="Line-3" class="cls-7" d="M68.12,65.25h75"/><path id="Line-4-2" data-name="Line-4" class="cls-7" d="M68.12,67.75h75"/><path id="Line-5-2" data-name="Line-5" class="cls-7" d="M68.12,70.25h75"/><rect id="Rectangle-2" data-name="Rectangle" class="cls-3" x="67.5" y="61.5" width="76.25" height="12.5" rx="5"/><polygon class="cls-8" points="225.26 60.95 235.13 78.05 254.87 78.05 264.74 60.95 225.26 60.95"/><rect class="cls-9" width="500" height="250"/></g></g></g></svg>