<svg xmlns="http://www.w3.org/2000/svg" width="500" height="250" viewBox="0 0 500 250"><defs><style>.cls-1,.cls-2,.cls-3,.cls-4,.cls-5,.cls-6,.cls-7,.cls-8{fill:none;}.cls-1,.cls-2,.cls-3,.cls-4,.cls-5,.cls-6,.cls-7{stroke:#fff;}.cls-1,.cls-2,.cls-3{stroke-miterlimit:10;}.cls-1{stroke-width:4px;}.cls-2,.cls-4{stroke-width:2px;}.cls-5,.cls-6{stroke-linecap:square;}.cls-6{stroke-width:0.5px;}</style></defs><g id="Layer_2" data-name="Layer 2"><g id="Layer_1-2" data-name="Layer 1"><g id="bottom_front"><line class="cls-1" x1="399.5" x2="399.5" y2="50"/><line class="cls-1" x1="148.5" y1="89.5" x2="148.5" y2="191"/><line class="cls-1" x1="400.5" y1="48.5" x2="147.5" y2="90.5"/><line class="cls-1" x1="149.5" y1="189.5" x2="110.5" y2="200.5"/><rect class="cls-2" x="148.5" y="111.5" width="16.5" height="60"/><rect class="cls-3" x="16" y="111" width="119" height="60"/><rect class="cls-2" x="165" y="115" width="7" height="52"/><line class="cls-3" x1="399.5" y1="35.5" x2="474.5" y2="35.5"/><line class="cls-3" x1="398" y1="25.5" x2="456.5" y2="25.5"/><rect class="cls-2" x="209.19" y="71.53" width="106" height="5.24" transform="translate(-8.6 43.94) rotate(-9.43)"/><line class="cls-3" x1="314.5" y1="64.5" x2="362.5" y2="64.5"/><line class="cls-3" x1="362.5" y1="54.5" x2="362.5" y2="64.5"/><line class="cls-3" x1="362.5" y1="60.5" x2="378.5" y2="60.5"/><line class="cls-3" x1="362.5" y1="63.5" x2="378.5" y2="62.5"/><line class="cls-3" x1="378" y1="60" x2="378" y2="63"/><line class="cls-3" x1="389.5" y1="61.5" x2="377.5" y2="61.5"/><line class="cls-2" x1="400" y1="48.5" y2="48.5"/><line class="cls-2" x1="154" y1="89" y2="89"/><line class="cls-2" x1="148" y1="89" x2="148" y2="49"/><polygon class="cls-3" points="182 71 182 60 262 60 182 71"/><g id="Group-9"><circle id="Oval" class="cls-4" cx="44.89" cy="140" r="18"/><circle id="Oval-2" data-name="Oval" class="cls-4" cx="44.89" cy="140" r="10"/><circle id="Oval-3" data-name="Oval" class="cls-4" cx="44.89" cy="140" r="4"/><path id="Line-9" class="cls-5" d="M44.89,136V122"/><path id="Line-9-2" data-name="Line-9" class="cls-5" d="M44.89,158V144"/><path id="Line-9-3" data-name="Line-9" class="cls-5" d="M48.39,140h14"/><path id="Line-9-4" data-name="Line-9" class="cls-5" d="M27.39,140h14"/></g><rect class="cls-3" x="75.11" y="123.22" width="52.39" height="9.28" rx="4"/><rect class="cls-3" x="75.11" y="147.22" width="52.39" height="9.28" rx="4"/><path id="Line-3" class="cls-6" d="M16.12,65.25h75"/><path id="Line-4" class="cls-6" d="M16.12,67.75h75"/><path id="Line-5" class="cls-6" d="M16.12,70.25h75"/><rect id="Rectangle" class="cls-7" x="15.5" y="61.5" width="76.25" height="12.5" rx="5"/><line class="cls-1" y1="200" x2="112" y2="200"/><line class="cls-3" x1="0.5" y1="48.5" x2="0.5" y2="89.5"/><rect class="cls-8" width="500" height="250"/></g></g></g></svg>