<svg xmlns="http://www.w3.org/2000/svg" width="500" height="250" viewBox="0 0 500 250"><defs><style>.cls-1,.cls-2,.cls-3,.cls-4,.cls-5,.cls-6,.cls-7{fill:none;}.cls-1,.cls-2,.cls-3,.cls-4,.cls-5,.cls-6{stroke:#fff;}.cls-1,.cls-5,.cls-6{stroke-miterlimit:10;}.cls-1{stroke-width:4px;}.cls-2{stroke-width:2px;}.cls-4{stroke-linecap:square;}.cls-4,.cls-6{stroke-width:0.5px;}</style></defs><g id="Layer_2" data-name="Layer 2"><g id="Layer_1-2" data-name="Layer 1"><g id="bottom_genneric1"><line class="cls-1" y1="200" x2="500" y2="200"/><line class="cls-2" x1="500" y1="48.5" y2="48.5"/><line class="cls-2" x1="500" y1="89" y2="89"/><line class="cls-3" x1="499.5" y1="48" x2="499.5" y2="89"/><line class="cls-3" x1="0.5" y1="48" x2="0.5" y2="89"/><path id="Line-3" class="cls-4" d="M66.12,65.25h75"/><path id="Line-4" class="cls-4" d="M66.12,67.75h75"/><path id="Line-5" class="cls-4" d="M66.12,70.25h75"/><rect id="Rectangle" class="cls-3" x="65.5" y="61.5" width="76.25" height="12.5" rx="5"/><path id="Line-3-2" data-name="Line-3" class="cls-4" d="M356.12,65.25h75"/><path id="Line-4-2" data-name="Line-4" class="cls-4" d="M356.12,67.75h75"/><path id="Line-5-2" data-name="Line-5" class="cls-4" d="M356.12,70.25h75"/><rect id="Rectangle-2" data-name="Rectangle" class="cls-3" x="355.5" y="61.5" width="76.25" height="12.5" rx="5"/><rect class="cls-3" x="19.5" y="101.5" width="190" height="85"/><polygon class="cls-3" points="202.44 105.5 199.56 105.5 198.11 108 199.56 110.5 202.44 110.5 203.89 108 202.44 105.5"/><polygon class="cls-3" points="28.44 105.5 25.56 105.5 24.11 108 25.56 110.5 28.44 110.5 29.89 108 28.44 105.5"/><polygon class="cls-3" points="202.44 177.5 199.56 177.5 198.11 180 199.56 182.5 202.44 182.5 203.89 180 202.44 177.5"/><polygon class="cls-3" points="28.44 177.5 25.56 177.5 24.11 180 25.56 182.5 28.44 182.5 29.89 180 28.44 177.5"/><rect class="cls-3" x="288.5" y="101.5" width="190" height="85"/><polygon class="cls-3" points="471.44 105.5 468.56 105.5 467.11 108 468.56 110.5 471.44 110.5 472.89 108 471.44 105.5"/><polygon class="cls-3" points="297.44 105.5 294.56 105.5 293.11 108 294.56 110.5 297.44 110.5 298.89 108 297.44 105.5"/><polygon class="cls-3" points="471.44 177.5 468.56 177.5 467.11 180 468.56 182.5 471.44 182.5 472.89 180 471.44 177.5"/><polygon class="cls-3" points="297.44 177.5 294.56 177.5 293.11 180 294.56 182.5 297.44 182.5 298.89 180 297.44 177.5"/><rect class="cls-3" x="180.5" y="200.5" width="166" height="5"/><polygon class="cls-3" points="268.5 205.5 197.5 205.5 230.5 215.5 240.5 230.5 259.5 230.5 268.5 215.5 268.5 205.5"/><polyline class="cls-5" points="266.19 219.34 271.38 222.34 266.74 230.38 261.54 227.38"/><path class="cls-5" d="M263.48,242c-1.44-.83,1.06-7.84,5.58-15.67s9.34-13.5,10.78-12.67S264.91,242.86,263.48,242Z"/><line class="cls-6" x1="272.52" y1="228.36" x2="295.04" y2="241.36"/><line class="cls-6" x1="263.48" y1="242.03" x2="295.04" y2="241.36"/><line class="cls-6" x1="279.84" y1="213.69" x2="295.04" y2="241.36"/><line class="cls-5" x1="230.5" y1="215.5" x2="268.5" y2="215.5"/><line class="cls-5" x1="230.5" y1="215.5" x2="230.5" y2="205.5"/><polygon class="cls-5" points="67.5 208.5 25.5 201.5 67.5 201.5 67.5 208.5"/><polygon class="cls-5" points="101.5 208.5 101.5 201.5 146.5 201.5 101.5 208.5"/><rect class="cls-5" x="74.5" y="200.5" width="21" height="8"/><polygon class="cls-5" points="229.03 61.41 238.9 78.5 258.63 78.5 268.5 61.41 229.03 61.41"/><rect class="cls-7" width="500" height="250"/></g></g></g></svg>