<svg xmlns="http://www.w3.org/2000/svg" width="500" height="250" viewBox="0 0 500 250"><defs><style>.cls-1,.cls-2,.cls-3,.cls-4,.cls-5{fill:none;}.cls-1,.cls-2,.cls-3,.cls-4{stroke:#fff;stroke-miterlimit:10;}.cls-1{stroke-width:4px;}.cls-2{stroke-width:2px;}.cls-4{stroke-width:0.5px;}</style></defs><g id="Layer_2" data-name="Layer 2"><g id="Layer_1-2" data-name="Layer 1"><g id="bottom_engine"><line class="cls-1" x1="500" y1="200" x2="400" y2="200"/><line class="cls-2" x1="500" y1="48.5" x2="400" y2="48.5"/><line class="cls-2" x1="500" y1="89" x2="400" y2="89"/><line class="cls-3" x1="499.5" y1="48" x2="499.5" y2="89"/><line class="cls-1" x1="110" y1="47" x2="58" y2="35"/><line class="cls-1" x1="110" y1="47" x2="110" y2="103"/><line class="cls-1" x1="110" y1="103" x2="58" y2="116"/><line class="cls-1" x1="58" y1="131" x2="110" y2="147"/><line class="cls-1" x1="110" y1="147" x2="110" y2="203"/><line class="cls-1" x1="110" y1="203" x2="58" y2="216"/><line class="cls-2" x1="110" y1="103" x2="265" y2="103"/><line class="cls-2" x1="110" y1="47" x2="265" y2="47"/><line class="cls-2" x1="110" y1="147" x2="265" y2="147"/><line class="cls-2" x1="110" y1="203" x2="265" y2="203"/><line class="cls-1" x1="58" y1="116" x2="58" y2="131"/><line class="cls-1" x1="58" x2="58" y2="35"/><line class="cls-1" x1="58" y1="216" x2="58" y2="231"/><line class="cls-1" x1="58" y1="231" x2="265" y2="231"/><line class="cls-1" x1="401" y1="200" x2="264" y2="231"/><line class="cls-1" x1="265" x2="265" y2="231"/><line class="cls-2" x1="400" x2="400" y2="200"/><line class="cls-2" x1="265" y1="103" x2="400" y2="89"/><line class="cls-2" x1="265" y1="203" x2="400" y2="200"/><line class="cls-2" x1="265" y1="147" x2="400" y2="89"/><line class="cls-2" x1="265" y1="47" x2="400" y2="48"/><line class="cls-2" x1="265" y1="47" x2="400" y2="2"/><rect class="cls-3" x="414.5" y="60.56" width="69" height="18"/><line class="cls-3" x1="417.5" y1="64.56" x2="480.5" y2="64.56"/><line class="cls-3" x1="417.5" y1="74.56" x2="480.5" y2="74.56"/><line class="cls-3" x1="417.5" y1="69.56" x2="480.5" y2="69.56"/><rect class="cls-3" x="414.5" y="171.56" width="69" height="18"/><line class="cls-3" x1="417.5" y1="175.56" x2="480.5" y2="175.56"/><line class="cls-3" x1="417.5" y1="185.56" x2="480.5" y2="185.56"/><line class="cls-3" x1="417.5" y1="180.56" x2="480.5" y2="180.56"/><rect class="cls-3" x="414.5" y="101.56" width="69" height="62"/><polygon class="cls-4" points="479.87 103.56 478.13 103.56 477.27 105.06 478.13 106.56 479.87 106.56 480.73 105.06 479.87 103.56"/><polygon class="cls-4" points="419.64 158.33 417.91 158.33 417.05 159.83 417.91 161.33 419.64 161.33 420.51 159.83 419.64 158.33"/><polygon class="cls-4" points="419.64 103.33 417.91 103.33 417.05 104.83 417.91 106.33 419.64 106.33 420.51 104.83 419.64 103.33"/><polygon class="cls-4" points="479.64 158.33 477.91 158.33 477.05 159.83 477.91 161.33 479.64 161.33 480.51 159.83 479.64 158.33"/><polygon class="cls-3" points="124.5 67.24 124.5 81.67 137 88.89 149.5 81.67 149.5 67.24 137 60.02 124.5 67.24"/><polygon class="cls-3" points="174.5 67.24 174.5 81.67 187 88.89 199.5 81.67 199.5 67.24 187 60.02 174.5 67.24"/><polygon class="cls-3" points="225.5 67.24 225.5 81.67 238 88.89 250.5 81.67 250.5 67.24 238 60.02 225.5 67.24"/><polygon class="cls-3" points="124.5 167.24 124.5 181.67 137 188.89 149.5 181.67 149.5 167.24 137 160.02 124.5 167.24"/><polygon class="cls-3" points="174.5 167.24 174.5 181.67 187 188.89 199.5 181.67 199.5 167.24 187 160.02 174.5 167.24"/><polygon class="cls-3" points="225.5 167.24 225.5 181.67 238 188.89 250.5 181.67 250.5 167.24 238 160.02 225.5 167.24"/><rect class="cls-5" width="500" height="250"/></g></g></g></svg>