<svg xmlns="http://www.w3.org/2000/svg" width="500" height="250" viewBox="0 0 500 250"><defs><style>.cls-1,.cls-2,.cls-3,.cls-4,.cls-5,.cls-6,.cls-7,.cls-8{fill:none;}.cls-1,.cls-2,.cls-3,.cls-4,.cls-5,.cls-6,.cls-7{stroke:#fff;}.cls-1,.cls-2,.cls-3{stroke-miterlimit:10;}.cls-1{stroke-width:4px;}.cls-2,.cls-4{stroke-width:2px;}.cls-6,.cls-7{stroke-linecap:square;}.cls-6{stroke-width:0.5px;}</style></defs><g id="Layer_2" data-name="Layer 2"><g id="Layer_1-2" data-name="Layer 1"><g id="bottom_turretmount"><line class="cls-1" x1="500" y1="200" y2="200"/><line class="cls-2" x1="55" y1="213" x2="201" y2="249"/><rect class="cls-2" x="13" y="200" width="42" height="13" transform="translate(68 413) rotate(180)"/><rect class="cls-2" x="200" y="200" width="100" height="49" transform="translate(500 449) rotate(180)"/><rect class="cls-2" x="420.5" y="200.5" width="29" height="9" transform="translate(870 410) rotate(180)"/><line class="cls-2" x1="300" y1="249" x2="421" y2="209"/><line class="cls-3" x1="421" y1="208" x2="300" y2="208"/><line class="cls-3" x1="55" y1="210" x2="200" y2="210"/><polygon class="cls-3" points="281.25 237.5 288.75 237.5 292.51 231 288.75 224.5 281.25 224.5 277.49 231 281.25 237.5"/><polygon class="cls-3" points="211.25 237.5 218.75 237.5 222.51 231 218.75 224.5 211.25 224.5 207.49 231 211.25 237.5"/><line class="cls-4" x1="500" y1="48.5" y2="48.5"/><line class="cls-4" x1="500" y1="89" y2="89"/><line class="cls-5" x1="499.5" y1="48" x2="499.5" y2="89"/><line class="cls-5" x1="0.5" y1="48" x2="0.5" y2="89"/><path id="Line-3" class="cls-6" d="M355.12,65.25h75"/><path id="Line-4" class="cls-6" d="M355.12,67.75h75"/><path id="Line-5" class="cls-6" d="M355.12,70.25h75"/><rect id="Rectangle" class="cls-5" x="354.5" y="61.5" width="76.25" height="12.5" rx="5"/><path id="Line-3-2" data-name="Line-3" class="cls-6" d="M68.12,65.25h75"/><path id="Line-4-2" data-name="Line-4" class="cls-6" d="M68.12,67.75h75"/><path id="Line-5-2" data-name="Line-5" class="cls-6" d="M68.12,70.25h75"/><rect id="Rectangle-2" data-name="Rectangle" class="cls-5" x="67.5" y="61.5" width="76.25" height="12.5" rx="5"/><polygon class="cls-3" points="225.26 60.95 235.13 78.05 254.87 78.05 264.74 60.95 225.26 60.95"/><rect id="Rectangle-3" data-name="Rectangle" class="cls-5" x="189" y="106.33" width="122" height="20" rx="8"/><g id="Group-9"><circle id="Oval" class="cls-5" cx="274.5" cy="116.83" r="18"/><circle id="Oval-2" data-name="Oval" class="cls-5" cx="274.5" cy="116.83" r="10"/><circle id="Oval-3" data-name="Oval" class="cls-5" cx="274.5" cy="116.83" r="4"/><path id="Line-9" class="cls-7" d="M274.5,120.83v14"/><path id="Line-9-2" data-name="Line-9" class="cls-7" d="M274.5,98.83v14"/><path id="Line-9-3" data-name="Line-9" class="cls-7" d="M271,116.83H257"/><path id="Line-9-4" data-name="Line-9" class="cls-7" d="M292,116.83H278"/></g><g id="Group-9-2" data-name="Group-9"><circle id="Oval-4" data-name="Oval" class="cls-3" cx="224.5" cy="116.83" r="18"/><circle id="Oval-5" data-name="Oval" class="cls-3" cx="224.5" cy="116.83" r="10"/><circle id="Oval-6" data-name="Oval" class="cls-3" cx="224.5" cy="116.83" r="4"/><path id="Line-9-5" data-name="Line-9" class="cls-3" d="M224.5,120.83v14"/><path id="Line-9-6" data-name="Line-9" class="cls-3" d="M224.5,98.83v14"/><path id="Line-9-7" data-name="Line-9" class="cls-3" d="M221,116.83H207"/><path id="Line-9-8" data-name="Line-9" class="cls-3" d="M242,116.83H228"/></g><rect id="Rectangle-4" data-name="Rectangle" class="cls-5" x="189" y="159.33" width="122" height="20" rx="8"/><g id="Group-9-3" data-name="Group-9"><circle id="Oval-7" data-name="Oval" class="cls-5" cx="274.5" cy="169.83" r="18"/><circle id="Oval-8" data-name="Oval" class="cls-5" cx="274.5" cy="169.83" r="10"/><circle id="Oval-9" data-name="Oval" class="cls-5" cx="274.5" cy="169.83" r="4"/><path id="Line-9-9" data-name="Line-9" class="cls-7" d="M274.5,173.83v14"/><path id="Line-9-10" data-name="Line-9" class="cls-7" d="M274.5,151.83v14"/><path id="Line-9-11" data-name="Line-9" class="cls-7" d="M271,169.83H257"/><path id="Line-9-12" data-name="Line-9" class="cls-7" d="M292,169.83H278"/></g><g id="Group-9-4" data-name="Group-9"><circle id="Oval-10" data-name="Oval" class="cls-3" cx="224.5" cy="169.83" r="18"/><circle id="Oval-11" data-name="Oval" class="cls-3" cx="224.5" cy="169.83" r="10"/><circle id="Oval-12" data-name="Oval" class="cls-3" cx="224.5" cy="169.83" r="4"/><path id="Line-9-13" data-name="Line-9" class="cls-3" d="M224.5,173.83v14"/><path id="Line-9-14" data-name="Line-9" class="cls-3" d="M224.5,151.83v14"/><path id="Line-9-15" data-name="Line-9" class="cls-3" d="M221,169.83H207"/><path id="Line-9-16" data-name="Line-9" class="cls-3" d="M242,169.83H228"/></g><rect class="cls-3" x="26.5" y="98.5" width="21" height="89"/><rect class="cls-3" x="62.5" y="98.5" width="21" height="89"/><rect class="cls-3" x="416.5" y="98.5" width="21" height="89"/><rect class="cls-3" x="452.5" y="98.5" width="21" height="89"/><rect class="cls-8" width="500" height="250"/></g></g></g></svg>