<?xml version="1.0" encoding="UTF-8"?>
<svg width="500px" height="250px" viewBox="0 0 500 250" version="1.1" xmlns="http://www.w3.org/2000/svg" xmlns:xlink="http://www.w3.org/1999/xlink">
    <!-- Generator: Sketch 55.1 (78136) - https://sketchapp.com -->
    <title>innerhull2</title>
    <desc>Created with Sketch.</desc>
    <g id="innerhull2" stroke="none" stroke-width="1" fill="none" fill-rule="evenodd">
        <g transform="translate(0.000000, 7.000000)">
            <rect id="Rectangle" stroke="#FFFFFF" stroke-width="3" fill="#FFFFFF" x="1.5" y="138.5" width="497" height="7"></rect>
            <g id="Group-8" transform="translate(360.500000, 62.500000) rotate(-90.000000) translate(-360.500000, -62.500000) translate(298.000000, 51.000000)">
                <path d="M2.5,7.5 L122.5,7.5" id="Line-3" stroke="#979797" stroke-linecap="square"></path>
                <path d="M2.5,11.5 L122.5,11.5" id="Line-4" stroke="#979797" stroke-linecap="square"></path>
                <path d="M2.5,15.5 L122.5,15.5" id="Line-5" stroke="#979797" stroke-linecap="square"></path>
                <rect id="Rectangle" stroke="#FFFFFF" stroke-width="3" x="1.5" y="1.5" width="122" height="20" rx="8"></rect>
            </g>
            <g id="Group-8" transform="translate(401.500000, 62.500000) rotate(-90.000000) translate(-401.500000, -62.500000) translate(339.000000, 51.000000)">
                <path d="M2.5,7.5 L122.5,7.5" id="Line-3" stroke="#979797" stroke-linecap="square"></path>
                <path d="M2.5,11.5 L122.5,11.5" id="Line-4" stroke="#979797" stroke-linecap="square"></path>
                <path d="M2.5,15.5 L122.5,15.5" id="Line-5" stroke="#979797" stroke-linecap="square"></path>
                <rect id="Rectangle" stroke="#FFFFFF" stroke-width="3" x="1.5" y="1.5" width="122" height="20" rx="8"></rect>
            </g>
            <rect id="Rectangle" stroke="#FFFFFF" stroke-width="3" x="235.5" y="12.5" width="53" height="101" rx="8"></rect>
            <rect id="Rectangle" stroke="#FFFFFF" stroke-width="3" x="432.5" y="12.5" width="53" height="101" rx="8"></rect>
            <rect id="Rectangle" stroke="#FFFFFF" stroke-width="3" x="19.5" y="12.5" width="135" height="39" rx="8"></rect>
            <rect id="Rectangle" stroke="#FFFFFF" stroke-width="3" x="19.5" y="74.5" width="135" height="39" rx="8"></rect>
            <g id="Group-8" transform="translate(319.500000, 62.500000) rotate(-90.000000) translate(-319.500000, -62.500000) translate(257.000000, 51.000000)">
                <path d="M2.5,7.5 L122.5,7.5" id="Line-3" stroke="#979797" stroke-linecap="square"></path>
                <path d="M2.5,11.5 L122.5,11.5" id="Line-4" stroke="#979797" stroke-linecap="square"></path>
                <path d="M2.5,15.5 L122.5,15.5" id="Line-5" stroke="#979797" stroke-linecap="square"></path>
                <rect id="Rectangle" stroke="#FFFFFF" stroke-width="3" x="1.5" y="1.5" width="122" height="20" rx="8"></rect>
            </g>
        </g>
    </g>
</svg>