<svg xmlns="http://www.w3.org/2000/svg" width="500" height="250" viewBox="0 0 500 250"><defs><style>.cls-1,.cls-2,.cls-3{fill:none;}.cls-1,.cls-2{stroke:#fff;stroke-miterlimit:10;}.cls-1{stroke-width:2px;}</style></defs><g id="Layer_2" data-name="Layer 2"><g id="Layer_1-2" data-name="Layer 1"><g id="top_singlegunturret"><polygon class="cls-1" points="290.2 126.5 209.6 126.5 166.5 155.5 200 240 290.2 240.5 347.5 221.5 290.2 126.5"/><line class="cls-2" x1="172.5" y1="171" x2="172.5" y2="220.5"/><line class="cls-2" x1="192.5" y1="220.5" x2="172.5" y2="220.5"/><polygon class="cls-1" points="480 173 335.45 173 330 163 480 163 480 173"/><polygon class="cls-1" points="343 185 326 185 306 153 324.47 153.92 343 185"/><rect class="cls-1" x="480" y="162" width="18" height="12"/><rect class="cls-1" x="213" y="241" width="74" height="8"/><line class="cls-2" x1="290.5" y1="183.5" x2="200.5" y2="183.5"/><line class="cls-2" x1="200.5" y1="239.5" x2="200.5" y2="183.5"/><line class="cls-2" x1="290.5" y1="240.5" x2="290.5" y2="183.5"/><line class="cls-2" x1="347.5" y1="221.5" x2="290.5" y2="183.5"/><line class="cls-2" x1="290.5" y1="126.5" x2="290.5" y2="183.5"/><line class="cls-2" x1="166.5" y1="155.5" x2="200.5" y2="183.5"/><line class="cls-2" x1="209.5" y1="126.5" x2="200.5" y2="183.5"/><rect class="cls-3" width="500" height="250"/></g></g></g></svg>