<svg xmlns="http://www.w3.org/2000/svg" width="500" height="250" viewBox="0 0 500 250"><defs><style>.cls-1,.cls-2,.cls-3,.cls-4,.cls-5,.cls-6{fill:none;}.cls-1,.cls-2,.cls-3,.cls-4,.cls-5{stroke:#fff;}.cls-1,.cls-2,.cls-5{stroke-miterlimit:10;}.cls-1{stroke-width:4px;}.cls-2{stroke-width:2px;}.cls-4{stroke-linecap:square;}</style></defs><g id="Layer_2" data-name="Layer 2"><g id="Layer_1-2" data-name="Layer 1"><g id="top_genneric1"><line class="cls-1" y1="50" x2="500" y2="50"/><line class="cls-2" x1="500" y1="114.5" y2="114.5"/><path id="Rectangle" class="cls-3" d="M447.5,86.36h-106c-4.42,0-8-2-8-4.37V79.8c0-2.41,3.58-4.37,8-4.37h106c4.42,0,8,2,8,4.37V82C455.5,84.4,451.92,86.36,447.5,86.36Z"/><g id="Group-9"><ellipse id="Oval" class="cls-3" cx="419" cy="81.17" rx="18" ry="9.83"/><ellipse id="Oval-2" data-name="Oval" class="cls-3" cx="419" cy="81.17" rx="10" ry="5.46"/><ellipse id="Oval-3" data-name="Oval" class="cls-3" cx="419" cy="81.17" rx="4" ry="2.19"/><path id="Line-9" class="cls-4" d="M419,83.35V91"/><path id="Line-9-2" data-name="Line-9" class="cls-4" d="M419,71.33V79"/><path id="Line-9-3" data-name="Line-9" class="cls-4" d="M415.5,81.17h-14"/><path id="Line-9-4" data-name="Line-9" class="cls-4" d="M436.5,81.17h-14"/></g><g id="Group-9-2" data-name="Group-9"><ellipse id="Oval-4" data-name="Oval" class="cls-3" cx="369" cy="81.17" rx="18" ry="9.83"/><ellipse id="Oval-5" data-name="Oval" class="cls-3" cx="369" cy="81.17" rx="10" ry="5.46"/><ellipse id="Oval-6" data-name="Oval" class="cls-3" cx="369" cy="81.17" rx="4" ry="2.19"/><path id="Line-9-5" data-name="Line-9" class="cls-4" d="M369,83.35V91"/><path id="Line-9-6" data-name="Line-9" class="cls-4" d="M369,71.33V79"/><path id="Line-9-7" data-name="Line-9" class="cls-4" d="M365.5,81.17h-14"/><path id="Line-9-8" data-name="Line-9" class="cls-4" d="M386.5,81.17h-14"/></g><rect class="cls-3" x="21.5" y="137.5" width="245" height="38"/><rect class="cls-3" x="191.5" y="146.5" width="62" height="20"/><line class="cls-3" x1="266.5" y1="137.5" x2="253.5" y2="146.5"/><line class="cls-3" x1="253.5" y1="166.5" x2="266.5" y2="175.5"/><line class="cls-3" x1="191.5" y1="146.5" x2="21.5" y2="137.5"/><line class="cls-3" x1="191.5" y1="166.5" x2="21.5" y2="175.5"/><rect class="cls-3" x="21.5" y="190.5" width="245" height="38"/><rect class="cls-3" x="191.5" y="199.5" width="62" height="20"/><line class="cls-3" x1="266.5" y1="190.5" x2="253.5" y2="199.5"/><line class="cls-3" x1="253.5" y1="219.5" x2="266.5" y2="228.5"/><line class="cls-3" x1="191.5" y1="199.5" x2="21.5" y2="190.5"/><line class="cls-3" x1="191.5" y1="219.5" x2="21.5" y2="228.5"/><path id="Rectangle-2" data-name="Rectangle" class="cls-3" d="M167.5,86.36H61.5c-4.42,0-8-2-8-4.37V79.8c0-2.41,3.58-4.37,8-4.37h106c4.42,0,8,2,8,4.37V82C175.5,84.4,171.92,86.36,167.5,86.36Z"/><g id="Group-9-3" data-name="Group-9"><ellipse id="Oval-7" data-name="Oval" class="cls-3" cx="139" cy="81.17" rx="18" ry="9.83"/><ellipse id="Oval-8" data-name="Oval" class="cls-3" cx="139" cy="81.17" rx="10" ry="5.46"/><ellipse id="Oval-9" data-name="Oval" class="cls-3" cx="139" cy="81.17" rx="4" ry="2.19"/><path id="Line-9-9" data-name="Line-9" class="cls-4" d="M139,83.35V91"/><path id="Line-9-10" data-name="Line-9" class="cls-4" d="M139,71.33V79"/><path id="Line-9-11" data-name="Line-9" class="cls-4" d="M135.5,81.17h-14"/><path id="Line-9-12" data-name="Line-9" class="cls-4" d="M156.5,81.17h-14"/></g><g id="Group-9-4" data-name="Group-9"><ellipse id="Oval-10" data-name="Oval" class="cls-3" cx="89" cy="81.17" rx="18" ry="9.83"/><ellipse id="Oval-11" data-name="Oval" class="cls-3" cx="89" cy="81.17" rx="10" ry="5.46"/><ellipse id="Oval-12" data-name="Oval" class="cls-3" cx="89" cy="81.17" rx="4" ry="2.19"/><path id="Line-9-13" data-name="Line-9" class="cls-4" d="M89,83.35V91"/><path id="Line-9-14" data-name="Line-9" class="cls-4" d="M89,71.33V79"/><path id="Line-9-15" data-name="Line-9" class="cls-4" d="M85.5,81.17h-14"/><path id="Line-9-16" data-name="Line-9" class="cls-4" d="M106.5,81.17h-14"/></g><rect class="cls-3" x="275.5" y="190.5" width="203.5" height="38" transform="translate(754.5 419) rotate(180)"/><rect class="cls-3" x="286.3" y="199.5" width="51.5" height="20" transform="translate(624.09 419) rotate(180)"/><line class="cls-3" x1="275.5" y1="228.5" x2="286.3" y2="219.5"/><line class="cls-3" x1="286.3" y1="199.5" x2="275.5" y2="190.5"/><line class="cls-3" x1="337.8" y1="219.5" x2="479" y2="228.5"/><line class="cls-3" x1="337.8" y1="199.5" x2="479" y2="190.5"/><rect class="cls-3" x="275.5" y="137.5" width="203.5" height="38" transform="translate(754.5 313) rotate(180)"/><rect class="cls-3" x="286.3" y="146.5" width="51.5" height="20" transform="translate(624.09 313) rotate(180)"/><line class="cls-3" x1="275.5" y1="175.5" x2="286.3" y2="166.5"/><line class="cls-3" x1="286.3" y1="146.5" x2="275.5" y2="137.5"/><line class="cls-3" x1="337.8" y1="166.5" x2="479" y2="175.5"/><line class="cls-3" x1="337.8" y1="146.5" x2="479" y2="137.5"/><line class="cls-5" x1="499.5" y1="50" x2="499.5" y2="115"/><line class="cls-5" x1="0.5" y1="50" x2="0.5" y2="115"/><rect class="cls-6" width="500" height="250"/></g></g></g></svg>