<svg xmlns="http://www.w3.org/2000/svg" width="500" height="250" viewBox="0 0 500 250"><defs><style>.cls-1,.cls-2,.cls-3,.cls-4,.cls-5{fill:none;}.cls-1,.cls-2,.cls-3,.cls-4{stroke:#fff;stroke-miterlimit:10;}.cls-1{stroke-width:4px;}.cls-2{stroke-width:2px;}.cls-4{stroke-width:3px;}</style></defs><g id="Layer_2" data-name="Layer 2"><g id="Layer_1-2" data-name="Layer 1"><g id="top_command"><line class="cls-1" x1="124" y1="13" x2="374" y2="13"/><line class="cls-2" x1="500" y1="114.5" y2="114.5"/><line class="cls-3" x1="499.5" y1="50" x2="499.5" y2="115"/><line class="cls-3" x1="0.5" y1="50" x2="0.5" y2="115"/><line class="cls-2" x1="124" y1="115" x2="124" y2="13"/><line class="cls-2" x1="374" y1="13" x2="374" y2="115"/><line class="cls-2" x1="464" y1="115" x2="374" y2="13"/><line class="cls-2" x1="124" y1="13" x2="29" y2="115"/><line class="cls-1" x1="500" y1="50" x2="464" y2="50"/><line class="cls-1" y1="50" x2="29" y2="50"/><line class="cls-1" x1="373" y1="13" x2="464" y2="50"/><line class="cls-1" x1="29" y1="50" x2="125" y2="13"/><line class="cls-2" x1="464" y1="115" x2="464" y2="50"/><line class="cls-2" x1="29" y1="115" x2="29" y2="50"/><rect class="cls-4" x="141" y="43" width="86" height="29" rx="2"/><rect class="cls-3" x="144.5" y="46.5" width="79" height="22" rx="2"/><rect class="cls-4" x="270" y="43" width="86" height="29" rx="2"/><rect class="cls-3" x="273.5" y="46.5" width="79" height="22" rx="2"/><rect class="cls-2" x="237.5" y="25.5" width="23" height="69"/><line class="cls-3" x1="244" y1="32" x2="244" y2="87.5"/><line class="cls-3" x1="254" y1="32" x2="254" y2="87.5"/><rect class="cls-3" x="414.5" y="32.5" width="35" height="3" transform="translate(44.62 -160.21) rotate(22.13)"/><rect class="cls-3" x="140.5" y="7.5" width="87" height="5"/><rect class="cls-3" x="270.5" y="7.5" width="86" height="5"/><rect class="cls-2" x="237.5" y="4.5" width="23" height="8"/><rect class="cls-3" x="18.5" y="141.5" width="186" height="88"/><rect class="cls-3" x="292.5" y="141.5" width="186" height="88"/><rect class="cls-4" x="343" y="170.72" width="86" height="29" rx="2"/><rect class="cls-3" x="346.5" y="174.22" width="79" height="22" rx="2"/><rect class="cls-4" x="68" y="170.72" width="86" height="29" rx="2"/><rect class="cls-3" x="71.5" y="174.22" width="79" height="22" rx="2"/><line class="cls-3" x1="18.5" y1="141.5" x2="68.5" y2="170.5"/><line class="cls-3" x1="154.5" y1="170.5" x2="204.5" y2="141.5"/><line class="cls-3" x1="154.5" y1="199.5" x2="204.5" y2="229.5"/><line class="cls-3" x1="18.5" y1="229.5" x2="68.5" y2="199.5"/><line class="cls-3" x1="292.5" y1="141.5" x2="343.5" y2="170.5"/><line class="cls-3" x1="429.5" y1="170.5" x2="478.5" y2="141.5"/><line class="cls-3" x1="429.5" y1="199.5" x2="478.5" y2="229.5"/><line class="cls-3" x1="292.5" y1="229.5" x2="343.5" y2="199.5"/><rect class="cls-2" x="237.5" y="150.61" width="23" height="69"/><line class="cls-3" x1="244" y1="157.11" x2="244" y2="212.61"/><line class="cls-3" x1="254" y1="157.11" x2="254" y2="212.61"/><rect class="cls-5" width="500" height="250"/></g></g></g></svg>