<svg xmlns="http://www.w3.org/2000/svg" width="500" height="250" viewBox="0 0 500 250"><defs><style>.cls-1,.cls-2,.cls-3,.cls-4,.cls-5{fill:none;}.cls-1,.cls-2,.cls-3,.cls-4{stroke:#fff;stroke-miterlimit:10;}.cls-1{stroke-width:4px;}.cls-3{stroke-width:0.5px;}.cls-4{stroke-width:2px;}</style></defs><g id="Layer_2" data-name="Layer 2"><g id="Layer_1-2" data-name="Layer 1"><g id="top_front"><line class="cls-1" y1="50" x2="257" y2="50"/><line class="cls-1" x1="256.5" y1="49.5" x2="399.5" y2="114.5"/><line class="cls-1" x1="399.5" y1="113.5" x2="399.5" y2="250"/><rect class="cls-2" x="217.5" y="167.5" width="145" height="47"/><circle class="cls-2" cx="329.5" cy="190.5" r="19"/><rect class="cls-2" x="399.5" y="191.5" width="6" height="23"/><path class="cls-2" d="M408.5,243.5c-1.66,0-3-18.13-3-40.5s1.34-40.5,3-40.5S410.16,243.5,408.5,243.5Z"/><line class="cls-3" x1="409.5" y1="203" x2="435.5" y2="203"/><line class="cls-3" x1="408.5" y1="243.5" x2="435.5" y2="203"/><line class="cls-3" x1="408.5" y1="162.5" x2="435.5" y2="203"/><path class="cls-2" d="M400,114a10,10,0,1,1,0,20"/><line class="cls-4" x1="400" y1="114.5" y2="114.5"/><line class="cls-4" x1="257" y1="50" x2="257" y2="115"/><path class="cls-2" d="M400,135a10,10,0,1,1,0,20"/><rect class="cls-2" x="96.5" y="44.5" width="64" height="5"/><polygon class="cls-2" points="135.5 44.5 107.5 44.5 135.5 36.5 135.5 44.5"/><rect class="cls-2" x="135.5" y="36.5" width="14" height="8"/><line class="cls-2" x1="149.5" y1="38.5" x2="192.5" y2="38.5"/><line class="cls-2" x1="149.5" y1="41.5" x2="178.5" y2="41.5"/><rect class="cls-2" x="96.5" y="76.5" width="64" height="15"/><rect class="cls-2" x="107.5" y="80.5" width="42" height="7"/><line class="cls-2" x1="192.5" y1="84.5" x2="149.5" y2="84.5"/><line class="cls-2" x1="178.5" y1="82.5" x2="149.5" y2="82.5"/><line class="cls-2" x1="135.5" y1="80.5" x2="135.5" y2="87.5"/><circle class="cls-2" cx="249.5" cy="190.5" r="19"/><line class="cls-2" x1="257.5" y1="50.5" x2="314.5" y2="114.5"/><rect class="cls-2" x="11.5" y="125.5" width="124" height="12" rx="4"/><rect class="cls-2" x="11.5" y="146.5" width="124" height="12" rx="4"/><rect class="cls-2" x="11.5" y="167.5" width="124" height="12" rx="4"/><line class="cls-2" x1="0.5" y1="50" x2="0.5" y2="115"/><rect class="cls-5" width="500" height="250"/></g></g></g></svg>