<svg xmlns="http://www.w3.org/2000/svg" width="500" height="250" viewBox="0 0 500 250"><defs><style>.cls-1,.cls-2,.cls-3,.cls-4,.cls-5,.cls-6,.cls-7,.cls-8{fill:none;}.cls-1,.cls-2,.cls-3,.cls-4,.cls-5,.cls-6,.cls-7{stroke:#fff;}.cls-1,.cls-2,.cls-3{stroke-miterlimit:10;}.cls-1{stroke-width:4px;}.cls-2,.cls-5{stroke-width:2px;}.cls-6{stroke-linecap:square;}.cls-7{stroke-width:5px;}</style></defs><g id="Layer_2" data-name="Layer 2"><g id="Layer_1-2" data-name="Layer 1"><g id="top_turretmount"><line class="cls-1" y1="50" x2="500" y2="50"/><line class="cls-2" x1="445" y1="37" x2="299" y2="1"/><rect class="cls-2" x="445" y="37" width="42" height="13"/><rect class="cls-2" x="200" y="1" width="100" height="49"/><rect class="cls-2" x="50.5" y="40.5" width="29" height="9"/><line class="cls-2" x1="200" y1="1" x2="79" y2="41"/><line class="cls-3" x1="79" y1="42" x2="200" y2="42"/><line class="cls-3" x1="445" y1="40" x2="300" y2="40"/><polygon class="cls-3" points="218.75 12.5 211.25 12.5 207.49 19 211.25 25.5 218.75 25.5 222.51 19 218.75 12.5"/><polygon class="cls-3" points="288.75 12.5 281.25 12.5 277.49 19 281.25 25.5 288.75 25.5 292.51 19 288.75 12.5"/><g id="innerhull-sensors"><g id="innerhull3-sensor"><path id="Rectangle" class="cls-4" d="M133.78,227.11h16a4,4,0,0,1,4,4h0a4,4,0,0,1-4,4h-16a4,4,0,0,1-4-4h0A4,4,0,0,1,133.78,227.11Z"/><path id="Rectangle-2" data-name="Rectangle" class="cls-4" d="M133.78,143.11h16a4,4,0,0,1,4,4h0a4,4,0,0,1-4,4h-16a4,4,0,0,1-4-4h0A4,4,0,0,1,133.78,143.11Z"/><g id="Group-9"><ellipse id="Oval" class="cls-5" cx="181.28" cy="189.11" rx="42.5" ry="43"/><ellipse id="Oval-2" data-name="Oval" class="cls-5" cx="181.28" cy="189.11" rx="31.63" ry="32"/><ellipse id="Oval-3" data-name="Oval" class="cls-5" cx="181.28" cy="189.11" rx="8.9" ry="9"/><path id="Line-9" class="cls-6" d="M181.28,180.11v-34"/><path id="Line-9-2" data-name="Line-9" class="cls-6" d="M181.28,232.11v-34"/><path id="Line-9-3" data-name="Line-9" class="cls-6" d="M190.17,189.11h33.61"/><path id="Line-9-4" data-name="Line-9" class="cls-6" d="M138.78,189.11h33.6"/></g><g id="Group-9-2" data-name="Group-9"><circle id="Oval-4" data-name="Oval" class="cls-5" cx="285.78" cy="164.11" r="18"/><circle id="Oval-5" data-name="Oval" class="cls-5" cx="285.78" cy="164.11" r="10"/><circle id="Oval-6" data-name="Oval" class="cls-5" cx="285.78" cy="164.11" r="4"/><path id="Line-9-5" data-name="Line-9" class="cls-6" d="M285.78,160.11v-14"/><path id="Line-9-6" data-name="Line-9" class="cls-6" d="M285.78,182.11v-14"/><path id="Line-9-7" data-name="Line-9" class="cls-6" d="M289.28,164.11h14"/><path id="Line-9-8" data-name="Line-9" class="cls-6" d="M268.28,164.11h14"/></g><g id="Group-9-3" data-name="Group-9"><circle id="Oval-7" data-name="Oval" class="cls-5" cx="285.78" cy="214.11" r="18"/><circle id="Oval-8" data-name="Oval" class="cls-5" cx="285.78" cy="214.11" r="10"/><circle id="Oval-9" data-name="Oval" class="cls-5" cx="285.78" cy="214.11" r="4"/><path id="Line-9-9" data-name="Line-9" class="cls-6" d="M285.78,210.11v-14"/><path id="Line-9-10" data-name="Line-9" class="cls-6" d="M285.78,232.11v-14"/><path id="Line-9-11" data-name="Line-9" class="cls-6" d="M289.28,214.11h14"/><path id="Line-9-12" data-name="Line-9" class="cls-6" d="M268.28,214.11h14"/></g><rect id="Rectangle-3" data-name="Rectangle" class="cls-4" x="124.78" y="137.11" width="245" height="104"/><circle id="Oval-10" data-name="Oval" class="cls-7" cx="242.78" cy="157.11" r="5"/><circle id="Oval-11" data-name="Oval" class="cls-7" cx="242.78" cy="181.11" r="5"/><circle id="Oval-12" data-name="Oval" class="cls-7" cx="242.78" cy="226.11" r="5"/><rect id="Rectangle-4" data-name="Rectangle" class="cls-4" x="27.28" y="135.61" width="29" height="107"/><rect id="Rectangle-5" data-name="Rectangle" class="cls-4" x="76.28" y="135.61" width="29" height="107"/><rect id="Rectangle-6" data-name="Rectangle" class="cls-4" x="392.28" y="136.61" width="82" height="39" rx="8"/><rect id="Rectangle-7" data-name="Rectangle" class="cls-4" x="392.28" y="198.61" width="82" height="39" rx="8"/></g></g><line class="cls-2" x1="500" y1="114.5" y2="114.5"/><line class="cls-3" x1="499.5" y1="50" x2="499.5" y2="115"/><line class="cls-3" x1="0.5" y1="50" x2="0.5" y2="115"/><rect class="cls-3" x="34.5" y="65.5" width="121" height="6"/><rect class="cls-3" x="34.5" y="78.5" width="121" height="8"/><rect class="cls-3" x="34.5" y="93.5" width="121" height="8"/><rect class="cls-3" x="344.5" y="65.5" width="121" height="6"/><rect class="cls-3" x="344.5" y="78.5" width="121" height="8"/><rect class="cls-3" x="344.5" y="93.5" width="121" height="8"/><rect class="cls-8" width="500" height="250"/></g></g></g></svg>