<svg xmlns="http://www.w3.org/2000/svg" width="500" height="250" viewBox="0 0 500 250"><defs><style>.cls-1,.cls-2,.cls-3,.cls-4,.cls-5{fill:none;}.cls-1,.cls-2,.cls-3,.cls-4{stroke:#fff;stroke-miterlimit:10;}.cls-1{stroke-width:4px;}.cls-2{stroke-width:2px;}.cls-4{stroke-width:0.5px;}</style></defs><g id="Layer_2" data-name="Layer 2"><g id="Layer_1-2" data-name="Layer 1"><g id="top_engine"><line class="cls-1" x1="400" y1="50" x2="500" y2="50"/><line class="cls-2" x1="500" y1="114.5" x2="400" y2="114.5"/><line class="cls-3" x1="499.5" y1="50" x2="499.5" y2="115"/><line class="cls-1" x1="400" y1="50" x2="265" y2="18"/><line class="cls-1" x1="265" y1="18" x2="58" y2="18"/><line class="cls-1" x1="58" y1="38" x2="58" y2="18"/><line class="cls-1" x1="110" y1="50" x2="58" y2="38"/><line class="cls-1" x1="110" y1="50" x2="110" y2="106"/><line class="cls-1" x1="58" y1="119" x2="58" y2="134"/><line class="cls-1" x1="110" y1="106" x2="58" y2="119"/><line class="cls-1" x1="58" y1="134" x2="110" y2="150"/><line class="cls-1" x1="110" y1="150" x2="110" y2="206"/><line class="cls-1" x1="58" y1="219" x2="58" y2="250"/><line class="cls-1" x1="110" y1="206" x2="58" y2="219"/><line class="cls-1" x1="265" y1="18" x2="265" y2="250"/><line class="cls-2" x1="400" y1="50" x2="400" y2="250"/><line class="cls-2" x1="265" y1="18" x2="400" y2="115"/><line class="cls-2" x1="110" y1="106" x2="265" y2="106"/><line class="cls-2" x1="110" y1="50" x2="265" y2="50"/><line class="cls-2" x1="265" y1="106" x2="400" y2="115"/><line class="cls-2" x1="265" y1="50" x2="400" y2="115"/><line class="cls-2" x1="110" y1="150" x2="265" y2="150"/><line class="cls-2" x1="110" y1="206" x2="265" y2="206"/><line class="cls-2" x1="265" y1="150" x2="400" y2="115"/><line class="cls-2" x1="265" y1="206" x2="400" y2="248"/><rect class="cls-3" x="414.5" y="133.5" width="69" height="18"/><line class="cls-3" x1="417.5" y1="137.5" x2="480.5" y2="137.5"/><line class="cls-3" x1="417.5" y1="147.5" x2="480.5" y2="147.5"/><line class="cls-3" x1="417.5" y1="142.5" x2="480.5" y2="142.5"/><rect class="cls-3" x="414.5" y="229.5" width="69" height="18"/><line class="cls-3" x1="417.5" y1="233.5" x2="480.5" y2="233.5"/><line class="cls-3" x1="417.5" y1="243.5" x2="480.5" y2="243.5"/><line class="cls-3" x1="417.5" y1="238.5" x2="480.5" y2="238.5"/><rect class="cls-3" x="414.5" y="159.5" width="69" height="62"/><polygon class="cls-4" points="479.87 161.5 478.13 161.5 477.27 163 478.13 164.5 479.87 164.5 480.73 163 479.87 161.5"/><polygon class="cls-4" points="419.64 216.28 417.91 216.28 417.05 217.78 417.91 219.28 419.64 219.28 420.51 217.78 419.64 216.28"/><polygon class="cls-4" points="419.64 161.28 417.91 161.28 417.05 162.78 417.91 164.28 419.64 164.28 420.51 162.78 419.64 161.28"/><polygon class="cls-4" points="479.64 216.28 477.91 216.28 477.05 217.78 477.91 219.28 479.64 219.28 480.51 217.78 479.64 216.28"/><polygon class="cls-3" points="124.5 71.24 124.5 85.67 137 92.89 149.5 85.67 149.5 71.24 137 64.02 124.5 71.24"/><polygon class="cls-3" points="174.5 71.24 174.5 85.67 187 92.89 199.5 85.67 199.5 71.24 187 64.02 174.5 71.24"/><polygon class="cls-3" points="225.5 71.24 225.5 85.67 238 92.89 250.5 85.67 250.5 71.24 238 64.02 225.5 71.24"/><polygon class="cls-3" points="124.33 170.23 124.33 184.66 136.83 191.88 149.33 184.66 149.33 170.23 136.83 163.01 124.33 170.23"/><polygon class="cls-3" points="174.33 170.23 174.33 184.66 186.83 191.88 199.33 184.66 199.33 170.23 186.83 163.01 174.33 170.23"/><polygon class="cls-3" points="225.33 170.23 225.33 184.66 237.83 191.88 250.33 184.66 250.33 170.23 237.83 163.01 225.33 170.23"/><rect class="cls-5" width="500" height="250"/></g></g></g></svg>