<?xml version="1.0" encoding="UTF-8"?>
<svg width="500px" height="250px" viewBox="0 0 500 250" version="1.1" xmlns="http://www.w3.org/2000/svg" xmlns:xlink="http://www.w3.org/1999/xlink">
    <!-- Generator: Sketch 55.1 (78136) - https://sketchapp.com -->
    <title>Artboard</title>
    <desc>Created with Sketch.</desc>
    <g id="Artboard" stroke="none" stroke-width="1" fill="none" fill-rule="evenodd">
        <g id="gun-mount-top-2">
            <rect id="Rectangle" stroke="#FFFFFF" stroke-width="3" fill="#FFFFFF" x="1.5" y="51.5" width="497" height="7"></rect>
            <rect id="Rectangle" stroke="#FFFFFF" stroke-width="2" x="382" y="38" width="24" height="8" rx="4"></rect>
            <rect id="Rectangle" stroke="#FFFFFF" stroke-width="2" x="93" y="38" width="24" height="8" rx="4"></rect>
            <rect id="Rectangle" stroke="#FFFFFF" stroke-width="4" x="127" y="2" width="246" height="51"></rect>
            <path d="M7,55 L125,3" id="Line-2" stroke="#FFFFFF" stroke-width="4" stroke-linecap="square"></path>
            <path d="M375,55 L493,3" id="Line-2-Copy" stroke="#FFFFFF" stroke-width="4" stroke-linecap="square" transform="translate(434.000000, 29.000000) scale(-1, 1) translate(-434.000000, -29.000000) "></path>
            <path d="M0,151 L500,151" id="Line" stroke="#FFFFFF" stroke-width="4"></path>
            <polygon id="Triangle" stroke="#FFFFFF" stroke-width="2" transform="translate(79.782828, 17.625969) rotate(-24.000000) translate(-79.782828, -17.625969) " points="79.7828276 11.6259691 108.282828 23.6259691 51.2828276 23.6259691"></polygon>
            <path d="M190.5,25.5 L310.5,25.5" id="Line-3" stroke="#979797" stroke-linecap="square"></path>
            <path d="M190.5,29.5 L310.5,29.5" id="Line-4" stroke="#979797" stroke-linecap="square"></path>
            <path d="M190.5,33.5 L310.5,33.5" id="Line-5" stroke="#979797" stroke-linecap="square"></path>
            <rect id="Rectangle" stroke="#FFFFFF" stroke-width="3" x="189.5" y="19.5" width="122" height="20" rx="8"></rect>
            <rect id="Rectangle" stroke="#FFFFFF" stroke-width="3" x="312.5" y="88.5" width="122" height="20" rx="8"></rect>
            <g id="Group-9" transform="translate(331.000000, 80.000000)" stroke="#FFFFFF">
                <circle id="Oval" stroke-width="2" cx="18" cy="18" r="18"></circle>
                <circle id="Oval" stroke-width="2" cx="18" cy="18" r="10"></circle>
                <circle id="Oval" stroke-width="2" cx="18" cy="18" r="4"></circle>
                <path d="M18,14 L18,0" id="Line-9" stroke-linecap="square"></path>
                <path d="M18,36 L18,22" id="Line-9" stroke-linecap="square"></path>
                <path d="M28.5,25 L28.5,11" id="Line-9" stroke-linecap="square" transform="translate(28.500000, 18.000000) rotate(90.000000) translate(-28.500000, -18.000000) "></path>
                <path d="M7.5,25 L7.5,11" id="Line-9" stroke-linecap="square" transform="translate(7.500000, 18.000000) rotate(90.000000) translate(-7.500000, -18.000000) "></path>
            </g>
            <g id="Group-9" transform="translate(381.000000, 80.000000)" stroke="#FFFFFF">
                <circle id="Oval" stroke-width="2" cx="18" cy="18" r="18"></circle>
                <circle id="Oval" stroke-width="2" cx="18" cy="18" r="10"></circle>
                <circle id="Oval" stroke-width="2" cx="18" cy="18" r="4"></circle>
                <path d="M18,14 L18,0" id="Line-9" stroke-linecap="square"></path>
                <path d="M18,36 L18,22" id="Line-9" stroke-linecap="square"></path>
                <path d="M28.5,25 L28.5,11" id="Line-9" stroke-linecap="square" transform="translate(28.500000, 18.000000) rotate(90.000000) translate(-28.500000, -18.000000) "></path>
                <path d="M7.5,25 L7.5,11" id="Line-9" stroke-linecap="square" transform="translate(7.500000, 18.000000) rotate(90.000000) translate(-7.500000, -18.000000) "></path>
            </g>
            <rect id="Rectangle" stroke="#FFFFFF" stroke-width="3" x="62.5" y="88.5" width="122" height="20" rx="8"></rect>
            <g id="Group-9" transform="translate(81.000000, 80.000000)" stroke="#FFFFFF">
                <circle id="Oval" stroke-width="2" cx="18" cy="18" r="18"></circle>
                <circle id="Oval" stroke-width="2" cx="18" cy="18" r="10"></circle>
                <circle id="Oval" stroke-width="2" cx="18" cy="18" r="4"></circle>
                <path d="M18,14 L18,0" id="Line-9" stroke-linecap="square"></path>
                <path d="M18,36 L18,22" id="Line-9" stroke-linecap="square"></path>
                <path d="M28.5,25 L28.5,11" id="Line-9" stroke-linecap="square" transform="translate(28.500000, 18.000000) rotate(90.000000) translate(-28.500000, -18.000000) "></path>
                <path d="M7.5,25 L7.5,11" id="Line-9" stroke-linecap="square" transform="translate(7.500000, 18.000000) rotate(90.000000) translate(-7.500000, -18.000000) "></path>
            </g>
            <g id="Group-9" transform="translate(131.000000, 80.000000)" stroke="#FFFFFF">
                <circle id="Oval" stroke-width="2" cx="18" cy="18" r="18"></circle>
                <circle id="Oval" stroke-width="2" cx="18" cy="18" r="10"></circle>
                <circle id="Oval" stroke-width="2" cx="18" cy="18" r="4"></circle>
                <path d="M18,14 L18,0" id="Line-9" stroke-linecap="square"></path>
                <path d="M18,36 L18,22" id="Line-9" stroke-linecap="square"></path>
                <path d="M28.5,25 L28.5,11" id="Line-9" stroke-linecap="square" transform="translate(28.500000, 18.000000) rotate(90.000000) translate(-28.500000, -18.000000) "></path>
                <path d="M7.5,25 L7.5,11" id="Line-9" stroke-linecap="square" transform="translate(7.500000, 18.000000) rotate(90.000000) translate(-7.500000, -18.000000) "></path>
            </g>
            <rect id="Rectangle" stroke="#FFFFFF" stroke-width="3" x="31.5" y="170.5" width="438" height="16" rx="8"></rect>
            <rect id="Rectangle" stroke="#FFFFFF" stroke-width="3" x="31.5" y="220.5" width="438" height="16" rx="8"></rect>
        </g>
    </g>
</svg>